<svg xmlns="http://www.w3.org/2000/svg" id="Layer_1" viewBox="0 0 3840 5830"><defs><style>.st0{fill:#fff}</style></defs><path id="Floor_06" d="M3184.47 2279.44v5.34l-14.44 6.44v9.56l-14 6.66v127.73l-5.84.33-.16 8.5 5.33 2.33v37l-550.89-2.77 8-5.89-468.5-1.56-2.89 6.67-598.11-2.2-4.66-5.58-237.28-.5 8.33 5.5-300.44-.11-11.84-6.06-238.94-.94 20.17 7-281.17-1.56-352.47-.77-.07-106.56h-2.63v-2.63l181.86.8v-66.89l-232-91.78v-19.33h167.34V2120l-18.67-10-.17-12-20.16-10.67V2081h39v-14.67l518.64 2.11 42.55 32.89 182.22 1.23.78-9.89-4.22-4.11-.67-6.23 9.78.23.11-13.34 1897.06 7.5-1.17 15.34h38.33l-.83 6.83-16.33 13.67-.5 9-20.67 15 1.67 129 249.89.77.88 12.23z" class="st0"/><path id="Floor_05" d="m3554.69 2444.97-15.75 4.59-.5 14.41-15.16 4.59v275.33l-361.89-2.78 17.11-3.89-265.44.45-14 2.66-295.56-1.58 11-2.86-470 .33-606.33 2.53h-529.23l-12.52-1.42H144.17l.61-105.72h-2.59v-3.25l181 .92.48-109.11-179-45.61 352.47.77 281.17 1.56-20.17-7 238.94.94 11.84 6.06 300.44.11-8.33-5.5 237.28.5 4.66 5.58 598.11 2.2 2.89-6.67 468.5 1.56-8 5.89 550.89 2.77v-37l-5.33-2.33.16-8.5 5.84-.33 398.16 1.3z" class="st0"/><path id="Floor_04" d="m3523.5 2999.92-3200.44-.47-178.5-.03.58-106.48h-2.95v-2.88l180.45.88v-135.22l-178.47-18.39h852.25l12.52 1.42h529.23l606.33-2.53 470-.33-11 2.86 295.56 1.58 14-2.66 265.44-.45-17.11 3.89 361.89 2.78z" class="st0"/><path id="Floor_03" d="m3523.5 2999.92-.79 267.21-345-6.12-264.67.45-13.78-3.56-284.94 4.5-470.33 1.84-5.17-6.34-595.56 1.89-6.33 5.34-235 .66-292.67-4.33-12 5.67h-239v-4.34l-435.33-.08-177.58-.03.41-106.08h-3.37v-2.46l180.17-24.83.5-129.86z" class="st0"/><path id="Floor_02" d="m3523.86 3498.22-22.33-.33v14.33l-323.67.89-.78 10.56-255 1.11-18.5-12.17-289.11 1.56-.55 11.44-475.84 1.95-6.66-11.17-585.78 1.72-7.67 11-232.11.78v-10.67l-293.55.56-15.56 11.33-232.89.56s-.17-10.5 0-11-260.28.39-260.28.39l-5.66 3.44-353.45.56.61-105.99-3.08.37.39-2.65 180.54-52.89v-101.19l435.33.08v4.34h239l12-5.67 292.67 4.33 235-.66 6.33-5.34 595.56-1.89 5.17 6.34 470.33-1.84 284.94-4.5 13.78 3.56 264.67-.45 345 6.12z" class="st0"/></svg>