<svg xmlns="http://www.w3.org/2000/svg" id="Layer_1" viewBox="0 0 3840 5830"><defs><style>.st0{fill:#fff}</style></defs><path id="Floor_06" d="m3401.83 2626.5-143.16 30 3.16 32.17 129.45 40.39 4.89 66.22 2.77.22v14.11l-388.61-110.83 27.67-6.22-108.72-31.23-28.34 6-159-45.22 28-6.78-129.66-37.66-28.34 8-431.05-122.84 26.5-9.5-260.11-75.83-106 44.83-158.11-40.5.92-71.75 16.63-7.69-.5-11.83 16.5-7 .84-10.84-431.95-127.94L813.17 2452l16.94-276.22-15.05-4.17v-12l-16.78-4.94v-5.23l364.39-306 8.11 2.17 5.89-4.55 351.83 124 43.17-32.84 6.33 2.34 23.5-14.5L2095 2103l79.44-39.11L3219.83 2469v4.67l28.23 10.22-.34 5.78-13.44 3.11.22 11-12.67 3 1.23 14.44 27 9.34 2.11 29.88 149.66 52.73z" class="st0"/><path id="Floor_05" d="M3414.18 2978.69v14.25l-391.03-83.44 27.45-5.11-110.09-23.67-27.66 4.25-159.89-33.86 27.75-5.25-130.5-28.86-29.25 5.67-436.25-92.64 27.83-7.5-264.8-57.67-108 33.33-160.35-28.83-.1-47.44 73.89-26.34-527.58-118.25-198.81 101.42 116.34 23.33-613.09 249.59 14-189.36-10.66-1.73.38-11.83-10.83-.89v-7.5L813.17 2452l472.44-307.22 431.95 127.94-.84 10.84-16.5 7 .5 11.83-16.63 7.69-.92 71.75 158.11 40.5 106-44.83 260.11 75.83-26.5 9.5 431.05 122.84 28.34-8 129.66 37.66-28 6.78 159 45.22 28.34-6 108.72 31.23-27.67 6.22 388.61 110.83-126.54 21.67 4.34 48.83 130.02 30.75 4.34 67.92z" class="st0"/><path id="Floor_04" d="m3035.9 3124.61 28.67-3.33-110.61-15.45-27.92 2.25-162.33-22.19 28.33-3.67-132.5-19-28.66 4-441.73-62.89 27.34-5.33-268.34-38.67-108.66 22.5-165-12.55.89-38.72 73.33-17.67-537.67-80.11-201.33 68.83 120.33 16.17-621.33 188 21.33-255.11 613.09-249.59-116.34-23.33 198.81-101.42 527.58 118.25-73.89 26.34.1 47.44 160.35 28.83 108-33.33 264.8 57.67-27.83 7.5 436.25 92.64 29.25-5.67 130.5 28.86-27.75 5.25 159.89 33.86 27.66-4.25 110.09 23.67-27.45 5.11 391.03 83.44-127.28 15.56 4.89 67.44 130.64 22.03 4.33 69.34 3.25-.09.84 13.25z" class="st0"/><path id="Floor_03" d="m3313.96 3362.97.36 9.42-11.33-.5-21.34 1.58-71.66-1.41-.45-12.75-29.78-1.45-26 4.33-60-3.33v-10h-13.66l-22.67 3-88.33-3.33-2.67-10.34-144-8.33h-16.33l-24 4-113-4.33v-11.34l-40.34-3-27.33 1.67-654.33-37.33-113 7.66-136.78-7.55v-15.33l-29.67-1-20.66 2.33-235.56-13v-24.45l-76.67-4.88-25.11 5.55-50.44-3.55 67.55-10.45-130-8.67-204.66 33.12s127.11 7.11 128 6.88c.89-.22-628.34 90.06-628.34 90.06l16.95-229.47 621.33-188-120.33-16.17 201.33-68.83 537.67 80.11-73.33 17.67-.89 38.72 165 12.55 108.66-22.5 268.34 38.67-27.34 5.33 441.73 62.89 28.66-4 132.5 19-28.33 3.67 162.33 22.19 27.92-2.25 110.61 15.45-28.67 3.33 394.95 55.86-130.36 10.67 6.55 84.05 131.09 12.5 4.61 70.53 3.16.11.39 13.45z" class="st0"/><path id="Floor_02" d="M3465.15 3553.89v13.67l-132.05 1.45-353.06 3.88-341.33 3.78-148.45 1.33-522.19 4.25-6.06 1.28-14.83-.67-4.83 1-250.22 3.11v-6.22h-31.12l-20.88 3.11-239.12 3.11v-18.22l-80-2.67h-24.88l-52.45-3.11-502.89-3.85-266.58-2.04 17.55-220.83s629.23-90.28 628.34-90.06c-.89.23-128-6.88-128-6.88l204.66-33.12 130 8.67-67.55 10.45 50.44 3.55 25.11-5.55 76.67 4.88v24.45l235.56 13 20.66-2.33 29.67 1v15.33l136.78 7.55 113-7.66 654.33 37.33 27.33-1.67 40.34 3v11.34l113 4.33 24-4h16.33l144 8.33 2.67 10.34 88.33 3.33 22.67-3h13.66v10l60 3.33 26-4.33 29.78 1.45.45 12.75 71.66 1.41 21.34-1.58 11.33.5-.36-9.42 132.33 8.81-130.83 5.19 7.22 102.34 130.97 4.36 5.45 70.11z" class="st0"/><path id="Floor_01" d="m3635.93 3895.79-52.83 5.17-6.17-2.33s5.5-5.34 10.83-8.84c5.34-3.5 7-3.5 10.84-6.83 3.83-3.33 3-3 3-5.67s-1.34-1.5-3-3.66c-1.67-2.17-6.67-7.34-9.34-9.17-2.66-1.83-2 .5-2 1s.84 4.17.84 6.17-3.34 3-4.67 4.33-2.17.5-3-.5-5.17-2.83-6.67-2.5-5.33 1.5-6.5 1.67c-1.16.16-2.83-.67-4.33-.67s-1.17-.5-2.17-2.83c-1-2.34-2.16-2.34-3.5-4.34-1.33-2-3.33-5.16-5.16-6.83-1.84-1.67-3-3.83-4.34-4.83-1.33-1-6-2-6-2s.17 4.5 0 7c-.16 2.5-2.5 6.5-2.5 6.5s-1.33 1.83-3.66 3.66c-2.34 1.84-3.67.5-7.17.84-3.5.33-3.83.5-5.83.83s-2.67 6-3 8c-.34 2-2.34 3.33-2.34 3.33s-6.16 9.34-6.66 9.84-5.67 4.83-5.67 4.83l-3.33.17-1.67-15.5-13.33-1-1.34 5.66 4.5 10.84-8.16 6.33-11.34.5 4-10.83 4.5-8.5s-.22-2.56-.77-5.78c-.56-3.22-1.45-1.11-1.45-1.11s-7.55-22.67-9.33-19.78-2.45 6.33-4.56 7.22-4.89.11-6.66-2.33c-1.78-2.45-1.34-1.89-1.67-5.56-.33-3.66-3.33-12.33-3.67-14.55-.33-2.23-13.77-17-17.11-15.89-3.33 1.11-9.22 4-11 5.22s-2.22 10.67-1.11 14.56c1.11 3.88 3.56 7.11 2.67 10.88-.89 3.78-13.22 2.89-17.11 2.23-3.89-.67-4-3.89-4-3.89s-7.56-12.45-9.34-16.78c-1.77-4.33-2.22-13.22-2.22-15.44s-8.22-11.34-8.22-11.34-14.67 11.34-15.22 11.34-11.56-4.89-11.56-4.89l-9.67 8.55s-22.77 5.45-24.22 5.45 17.11 10 17.11 10l.89 9.44s-16.22-4.89-19.78-5.44c-3.55-.56-8.77 5.77-8.77 6.33s14 7.44 14.89 8.22c.88.78 3.22 22.56 3.22 22.56l-5.56 1.78-8.11-18.12-11.67 2.67s2.89 11 3.23 14.56c.33 3.55-.34 10.89-1.67 14.89s-11.56-10.34-11.67-11.34-7.77-15.33-7.77-15.33 3.77 27.33 3.55 27.89c-.22.55-12-2.78-14.55-3.56-2.56-.78 4.33-9.44 4.33-10.11s-16.22-28.78-16.56-28.78-12.66 12.89-12.66 12.89l-.45 19-5.44 6.67-2.59-14.2c2.72-13.05 1.03-25.25-5.16-36.58.89-11.42-2.9-19.97-13.17-24.58-8.01-15.7-21.05-28.98-50.25-34.5l-122.75-8c-28.03-2.82-55.65 23.46-83.33 45.25-7.9-2.66-20-1.5-27.7 2.75-7.69 4.25-14.37 14.51-20.33 24l-6.33 12 1.16 29.16c.41 12.44 2.74 20.54 10 17.5v5.34l-66.83 5.16-177.92 3.5-85.66 2.25-74 .09-23.84 1.58-404.75 32.89c3.72-5.84 4.92-14.56 4.84-24.75l3.25-42.58-7.89-10.89-.34-27.21c-14.55-14.42-26.91-28.27-33-40.5-46.81-12.07-95.86-17.95-146.83-18.5-26.43-1.96-55.75-1.34-86.83.83-17.99 1.85-33.75 5.23-44.84 11.84l-23.83 8.66c-29.25 15.6-57.27 32.76-83.67 52-37.33 1.67-73.16 20.67-73.16 20.67-7.48 4.62-12.22 9.64-14.67 15l-2.83 4.5-.95 6.05-34.77 2.45h-2.45c-.55 0-3.78-.56-4.22-.67-.45-.11.33-4.22.33-4.55s2.78-10.89 2.78-10.89l.56-3.11-1.12-4.89 2.23-9.89-2.67-11.67s-7-21-7-24-10.67-22-10.67-22-17.33-3.66-18.66-4c-1.34-.33-31.67-11.66-31.67-11.66l-20 1.33 1.39 3.33s-13.33-1.33-14.67-5.16c-1.33-3.84-1.16 0-1.16 0s-9.5 3.83-14.17 6.66c-4.67 2.84-7 5.17-10.33 6.17-3.34 1-.84-1-.17-4.83.67-3.84 3.33-14 1.83-15.84-1.5-1.83-3.83-4.33-5.33-6-1.5-1.66-4-4-7.67-6.5-3.66-2.5-12.33-4.5-14.83-6s-4.5-.5-10.83-.16c-6.34.33-6.17 1.16-10.67 2-4.5.83-2.17-.34-7.5-3.5-5.33-3.17-4 .66-6.67 1.66-2.66 1-2.5 2.17-7 5.34-4.5 3.16-5 8.5-6 12s-6.66-.34-6.16-1.67 3.83-5.67 3.83-5.67l-13-.33s-2.33 11-3.33 12-11.17 1.5-10.84.67c.34-.84 1-20.67 1-21.17s-6.16-2.83-8.33-2.5 1.33 5.17 1.67 6.83c.33 1.67-.84 11-.67 13.67s-6.67.67-6.67.17-2.83-12.34-2.83-12.34l-6 .17.68 6.33s-4.01 3-4.35 3.84c-.33.83 2.5 2.16 3.5 2.16s.84 6.17.84 6.84-4.5 1.5-4.5 1.5l-7.39-7.06-9.34-.89-2.66 8 2.66 11.56-6.22 8.44-7.11-10.22-6.67-6.22s-10.66 6.22-12 7.95c-1.33 1.73-7.11-5.73-7.11-5.73l2.67-8-4.89-5.33h-10.67l-14.22.88-14.67 7.12s-5.33.44-9.33.44h-4s-2.22 2.67-3.11 4.44c-.89 1.78-4.89 4.89-6.22 5.78-1.34.89-5.34 0-5.34 0s-.88-2.22-1.77-11.11-4.45-15.11-4.45-15.11h-6.22c-1.33 0-5.33-5.33-5.33-5.33l-7.11-9.34-7.12.45-16 2.22-8 3.11s-5.77 3.11-6.22 4c-.44.89 0 15.11 0 15.11l-2.66-2.66s-7.56-8-9.78-10.55-10.22-2.79-12.45-3.23c-2.22-.45-12-6.22-12-6.22l-8.89-5.34-9.33-2.66s-3.11 5.33-4.89 8.44-2.66 4.44-2.66 4.44l-7.12-4.88v7.11c0 3.11-7.55 2.22-7.55 2.22l-1.78-4c-1.78-4-.89-1.78-1.33-4.45-.45-2.66-7.11-8.44-9.34-9.33-2.22-.89 0 3.18 0 3.18h-10.66s-3.56-.07-4.89-.07-12.45.45-15.56-.89c-3.11-1.33-7.11-5.77-9.77-8.44-2.67-2.67-3.12-2.22-4.45-4s-6.22-2.67-6.22-2.67-6.67-.44-9.33-.44-9.34-.45-13.78-.45-3.11 1.78-3.11 1.78l-13.78 5.78-2.67-3.56-19.55-9.77-9.78 4-6.67 9.33h-9.78l-3.55-4.45 9.33-10.22-27.11-2.66-14.67 2.22-14.66 4-15.11 6.66h-4.89l-11.56-7.11-19.11-1.33h-5.33l-15.11 5.33h-4.45l-5.33-6.22-5.33-2.22 10.66-195.52 502.89 3.85 52.45 3.11h24.88l80 2.67v18.22l239.12-3.11 20.88-3.11h31.12v6.22l250.22-3.11 4.83-1 14.83.67 6.06-1.28 522.19-4.25 148.45-1.33 341.33-3.78 353.06-3.88 5.16 84.73 35.34.66 160.22 73.5s7.78-1.44 10.11-1.77c2.33-.34 2.33.44 2.33.44l3.67 3.44s3.78 1.12 4.89.78c1.11-.33 4.56-2.33 6.56-3.22s2 1.44 3.11 3.22 2.33 2 2.33 2 10.44 8.34 10.78 8.56c.33.22 5.89-1.67 6.22-1.78s3.44 7.56 3.44 7.56-2.77-.12-3.11 1c-.33 1.11 2.78 5.22 2.89 5.66.11.45 7.11 2.11 7.11 2.11l2.45 1.34 2 7.66s4.33 6.67 5.55 9c1.23 2.34 3.11 6.89 3.11 6.89l7.67 4.34 6.22 3.11 3.23 8.33-1.45 9-.67 10.22-14.55 6.56-3.45 7.22 25.67.56z" class="st0"/></svg>