<svg xmlns="http://www.w3.org/2000/svg" id="Layer_1" viewBox="0 0 3840 5830"><defs><style>.st0{fill:#fff}</style></defs><path id="Floor_06" d="m3603.24 2242.63-196.67 67.5.33 75.66 179 1.95.11 93 5.78-.23-.61 19-920.28-9 9.67-4.5-225.17-2.16-6.83 4.5-300.5-2.56 5.17-5-229.17-2.89-4.07 11.68-650.68-11.9-5.44-6.11-336.45-1.78 28.67 18.45-263.69 1.34.35-21.12h9.12l1.11-16.67h9.11v-9.05l-33.34-17.84-328.66-3.66.22-269.45-16.11-10.44-.33-10.89-17.67-11.67v-5.66h34.11v-15.78l296.47 5.05v-2.66l31 .5-.16-22.17 589.22 10.61-.5-8.5 3.16-.33-.83-16.84 1921.67 34.34v17.33l33.78.33-.78 5.89-2 2.89 186.72 2.5-.33 96.17 195.5 2z" class="st0"/><path id="Floor_05" d="m3584.11 2733.44 6.5-1.16v19.5l-920.3-3.71 10.41-2.08-223.8-1.17-9.25 3.25-300-1.39 5.58-2.33-228.75-.92-2.83 2.17-652.92 1.22-3.89-5.11-337.78-1.67 28.5 8-263.66-2.83-57-9.45-364.67-1.66.22 15.78-151.22-15.73-.28-115-3.83-.39.33-4.55 154.56 1.89.16-162.67-14.16-4.67-.17-14.83-15-4.17v-9.83l109.24 1.31 328.66 3.66 33.34 17.84v9.05h-9.11l-1.11 16.67h-9.12l-.35 21.12 263.69-1.34-28.67-18.45 336.45 1.78 5.44 6.11 650.68 11.9 4.07-11.68 229.17 2.89-5.17 5 300.5 2.56 6.83-4.5 225.17 2.16-9.67 4.5 920.28 9-183.74 37.93.17 102.34 178.5.83z" class="st0"/><path id="Floor_04" d="M3591.78 2987.17v17.66l-183.12.42h-.01l-3139.59 7.23-150.56.35v-114.22h-3.78v-4.44h155.75v-144.29l-.22-15.78 364.67 1.66 57 9.45 263.66 2.83-28.5-8 337.78 1.67 3.89 5.11 652.92-1.22 2.83-2.17 228.75.92-5.58 2.33 300 1.39 9.25-3.25 223.8 1.17-10.41 2.08 920.3 3.71-182.33 14.33.16 128.72 176.5-.33-2 92.17z" class="st0"/><path id="Floor_03" d="M3592.17 3239.17v17.77l-184.11 1.58-1553.95 13.37H691.78l-39.56 10.17H269.78l-39.5 11H119.11v-111.5h-4v-4l131-23.84h22.95v-141.24l3139.59-7.23h.01l.01.01-.34 121.46 178.73 20.45-1.23 91.44z" class="st0"/><path id="Floor_02" d="M3589.22 3493.03v17l-180.55 2.94-1217.89 19.84-6.22-4.45-326.12 9-229.11 4-704 9-270.39 3.56-.83-4.86H269.78v-267h382.44l39.56-10.17h1162.33l1553.95-13.37v98.06l177.83 43.45-.33 93z" class="st0"/><path id="Floor_01" d="m3589 3885.69-.94 84.56-507.56-15.11v4l-6.67.22-10.22-5.33-73.55-1.56 1.77 7.11-4.44 1.11-12.22-8.88-433-12.45-5.23 2.11-89-.89-6.22-1.77-3.78-3.12-114.22-3.16c-3.53-8.32-2.26-18.9 0-32.17-2.79-8.41-2.67-20.95-1.91-34.42l-25.59-21.16c6.52-16.4-13.3-24.4-38.83-30.59-37.91-8.41-78.09-13.15-120.42-14.38-37.83-3.32-82.57 11.94-130.75 36.41-29.34-1.01-56.53 2.07-78.91 14.25-16.2 6.94-26.25 26.16-26.34 65.34l-543.8-20.62-726.86 2.67c2.13-3.29 3.6-6.9 4.5-10.78 1.72-5.21.88-10.18-2.23-14.94-.49-7.54-.29-14.54.59-21 1.62-3.99 1.52-7.94-.84-11.83-2.99-3.63-2.36-13.66-1.27-24.5l-11.28-8.28c-6.27-4.56-12.6-10.69-18.95-17.5 1.46-3.24.97-4.81-.83-5.28l-24.67-5.17c-14.33-3.66-124.81-14.64-154.66-5.16-56.89 5.9-102.84 49.5-118 37.66l10-10.33-8-5-3.84-7.83h-4.33l-3.83 6 1.33-6 3.83-5.5 3-5.67-4.5-7.67-5.33 4-4.33-6.33 5-6.67 1.83-6.49-8-6.01-1.5 1.17s-3.83 5-4.67 4.83c-.83-.16-2.25-1.5-2.25-1.5l8.42-9-3.33-2.66-5.09 5.83-2.25 5.83h-6.16l2-5.5 6.41-10.83 8.42-5.17-1.67-5.5-4.5 1.17s-6.5 9.67-7 10.17-3.66-3.67-3.66-3.67l1.11-8.5v-175.19h384.33l.83 4.86 270.39-3.56 704-9 229.11-4 326.12-9 6.22 4.45 1217.89-19.84-.39 207.89 68.89-1.55-.23 27.44 9.78-7.33 3.34-4.67 6.44 4.89 6.89 6.89 10.22-2.67 6.45 8.45 9.44 1.72 6.33 5.62s0 7.04-.33 8.88c-.33 1.83-4.33 9.5-4.33 9.5l6 5.33 14.83-1.33 13.17 12.83-2.34 14.83 1 22.17 5.34-1.5 7.5 7.33 3.5 9.84s-9.34 7-10.17 7.66c-.83.67-10.83 4.67-10.83 4.67l-4.17 8.33z" class="st0"/></svg>